<svg width="24" height="19" viewBox="0 0 24 19" fill="none" xmlns="http://www.w3.org/2000/svg">
<g clip-path="url(#clip0_19_67)">
<path d="M20.7658 16.3807L7.59813 16.3384C7.29957 16.3375 7.00412 16.2771 6.72866 16.1606C6.45321 16.044 6.20315 15.8737 5.99279 15.6594L0.660195 10.2289C0.217672 9.77822 0.220009 9.05007 0.665416 8.6026L6.03277 3.20612C6.46036 2.77621 7.03936 2.53547 7.64209 2.5374L20.8101 2.57968C22.0657 2.58371 23.0799 3.61666 23.0758 4.88714L23.0463 14.0878C23.0422 15.3583 22.0214 16.3847 20.7658 16.3807ZM17.7872 7.24008C18.0099 7.01617 18.011 6.65209 17.7898 6.42676L16.989 5.61121C16.7677 5.38587 16.4079 5.38472 16.1852 5.60863L13.9739 7.832L11.7768 5.59448C11.5556 5.36914 11.1958 5.36798 10.9731 5.5919L10.1671 6.40228C9.94436 6.6262 9.94319 6.99027 10.1644 7.21561L12.3615 9.45313L10.1501 11.6765C9.92742 11.9004 9.92626 12.2645 10.1475 12.4898L10.9483 13.3054C11.1696 13.5307 11.5294 13.5319 11.7521 13.3079L13.9634 11.0846L16.1605 13.3221C16.3817 13.5474 16.7415 13.5486 16.9642 13.3247L17.7702 12.5143C17.9929 12.2904 17.9941 11.9263 17.7728 11.701L15.5758 9.46345L17.7872 7.24008Z" fill="rgb(26, 185, 26)"/>
</g>
<defs>
<clipPath id="clip0_19_67">
<rect width="22.7312" height="18.4014" fill="white" transform="matrix(0.999995 0.00321042 0.00321042 -0.999995 0.300476 18.6151)"/>
</clipPath>
</defs>
</svg>
